<?xml version="1.0" encoding="utf-8"?>
<svg xmlns="http://www.w3.org/2000/svg" viewBox="0 0 500 500">
  <path d="M 256.268 13.12 C 253.449 14.66 250.312 15.923 249.326 15.923 C 245.786 15.923 243.921 18.121 243.921 22.308 C 243.921 25.901 244.228 26.462 248.394 30.583 C 252.495 34.62 253.173 34.991 256.3 34.866 C 258.186 34.791 260.159 35.084 260.668 35.517 C 261.303 36.039 262.818 35.76 265.193 34.683 C 267.153 33.793 269.613 33.054 270.641 33.045 C 273.408 33.018 278.729 30.039 280.318 27.627 C 281.865 25.256 281.813 25.174 276.619 22.299 C 275.263 21.557 273.45 19.538 272.559 17.819 C 268.33 9.552 264.758 8.518 256.268 13.12 M 187.808 31.015 C 186.419 32.604 185.285 34.231 185.285 34.636 C 185.285 35.971 187.077 36.517 187.765 35.393 C 188.306 34.517 188.561 34.581 188.984 35.708 C 189.291 36.485 189.091 37.655 188.549 38.309 C 187.691 39.342 187.405 39.345 186.387 38.331 C 185.052 36.989 182.53 37.675 178.65 40.434 C 176.774 41.776 176.318 42.709 176.318 45.254 C 176.318 50.29 178.83 52.515 185.042 52.952 C 187.818 53.146 191.581 53.75 193.404 54.295 C 196.457 55.214 196.85 55.145 198.82 53.32 C 201.311 51.034 210.533 38.85 210.533 37.871 C 210.533 35.076 208.699 33.044 205.477 32.219 C 203.559 31.732 200.643 30.616 199.012 29.737 C 194.316 27.204 190.807 27.603 187.808 31.015 M 234.009 30.364 C 230.353 33.369 230.109 33.808 230.109 37.1 C 230.109 39.951 230.109 39.951 231.71 37.914 C 232.579 36.794 233.311 35.459 233.321 34.947 C 233.332 33.894 235.378 32.897 236.077 33.597 C 236.321 33.849 235.452 35.374 234.116 36.984 C 231.912 39.655 230.83 42.575 232.315 41.809 C 236.872 39.467 239.755 38.631 242.002 38.997 C 244.831 39.455 252.739 44.143 256.258 47.435 C 257.445 48.545 258.61 49.117 258.865 48.703 C 260.105 46.695 257.614 43.23 250.28 36.799 C 239.108 27 238.429 26.731 234.009 30.364 M 307.06 31.814 C 305.258 32.457 302.386 33.201 300.636 33.464 C 298.877 33.737 296.61 34.842 295.465 35.99 C 293.705 37.739 293.493 38.501 293.949 41.337 C 294.691 45.985 298.274 53.208 300.595 54.726 C 302.164 55.753 303.053 55.829 305.12 55.104 C 308.395 53.96 316.027 53.942 318.136 55.069 C 319.027 55.545 320.097 56.827 320.51 57.92 C 321.443 60.382 322.197 60.413 324.305 58.073 C 328.343 53.61 328.248 47.513 324.103 45.222 C 321.518 43.794 319.705 40.946 319.695 38.292 C 319.673 35.764 315.551 31.438 312.751 31.015 C 311.406 30.811 308.851 31.171 307.06 31.814 M 272.749 35.084 C 265.151 38.711 261.027 42.342 261.027 45.4 C 261.027 46.81 261.43 47 263.678 46.668 C 265.13 46.451 268.119 46.807 270.313 47.456 C 273.472 48.388 275.05 48.447 277.892 47.733 C 282.502 46.57 285.173 47.762 287.578 52.036 C 289.328 55.164 289.328 55.164 290.249 52.526 C 292.402 46.352 291.162 38.069 287.505 34.187 C 284.049 30.526 282.036 30.648 272.749 35.084 M 214.507 37.304 C 213.839 37.864 212.292 39.788 211.062 41.58 C 209.844 43.372 208.043 45.956 207.045 47.323 C 206.049 48.691 204.533 51.897 203.675 54.449 C 201.545 60.79 202.414 62.578 208.518 64.505 C 212.885 65.879 213.256 65.88 215.557 64.561 C 217.03 63.711 219.733 63.165 222.447 63.165 C 226.06 63.165 227.258 62.798 228.859 61.199 C 229.941 60.117 231.075 58.261 231.36 57.074 C 231.816 55.283 231.414 54.453 228.954 52.21 C 225.53 49.07 225.382 48.332 227.736 46.138 C 228.817 45.127 229.272 44.011 228.944 43.155 C 228.498 41.98 227.417 41.837 221.153 42.137 C 217.147 42.328 214.041 42.216 214.253 41.888 C 214.879 40.878 220.295 39.368 221.556 39.851 C 223.389 40.554 222.955 38.975 220.93 37.554 C 218.747 36.023 216.16 35.921 214.507 37.304 M 235.378 43.223 C 228.752 48.024 227.819 49.565 230.894 50.54 C 233.437 51.352 234.317 53.833 233.713 58.632 C 233.099 63.608 232.706 63.192 241.355 66.967 C 250.915 71.147 253.227 69.35 254.011 57.056 C 254.551 48.91 254.551 48.91 251.074 46.747 C 243.591 42.096 238.494 40.953 235.378 43.223 M 263.89 49.453 C 262.989 49.947 261.207 51.309 259.946 52.482 C 257.688 54.568 257.657 54.743 258.186 60.835 C 258.569 65.038 258.42 67.64 257.784 68.853 C 255.877 72.386 257.265 74.075 264.621 77.272 C 272.486 80.686 273.577 80.572 278.051 75.91 C 280.732 73.118 280.901 73.062 283.138 74.224 C 285.194 75.288 285.746 75.282 287.896 74.169 C 290.854 72.638 292.804 69.111 292.804 65.273 C 292.804 63.017 292.104 61.733 289.54 59.187 C 287.748 57.413 286.285 55.453 286.285 54.83 C 286.285 54.208 285.491 52.854 284.526 51.823 C 282.968 50.146 282.3 50.004 278.177 50.47 C 274.976 50.834 272.517 50.615 270.047 49.746 C 265.914 48.288 265.977 48.291 263.89 49.453 M 293.196 52.603 C 292.348 57.641 294.797 60.444 301.993 62.688 C 302.799 62.938 303.997 64.444 304.665 66.033 C 306.308 69.957 308.937 71.084 312.922 69.568 C 316.144 68.345 319.683 64.053 319.683 61.379 C 319.683 60.529 318.73 58.889 317.575 57.735 C 315.795 55.955 314.946 55.696 311.978 56.031 C 310.06 56.247 307.314 57.008 305.883 57.719 C 302.386 59.471 300.033 58.322 296.789 53.261 C 295.391 51.093 294.151 49.319 294.002 49.319 C 293.875 49.319 293.504 50.796 293.196 52.603 M 172.322 57.141 C 169.63 58.274 164.68 64.137 158.956 73.026 C 156.837 76.308 158.405 79.25 163.694 81.9 C 167.276 83.694 167.796 84.277 168.03 86.787 C 168.719 94.141 179.212 97.479 186.355 92.603 C 188.222 91.325 191.4 89.553 193.426 88.668 C 197.867 86.717 202.382 81.817 202.382 78.942 C 202.382 77.796 201.682 74.419 200.835 71.436 C 199.996 68.456 198.874 64.458 198.365 62.55 C 196.902 57.127 194.846 56.241 183.78 56.241 C 178.65 56.241 173.509 56.647 172.322 57.141 M 338.815 62.926 C 329.053 65.261 328.152 66.742 333.145 72.265 C 334.735 74.02 336.653 76.813 337.406 78.473 C 338.169 80.133 340.543 83.447 342.674 85.836 C 344.804 88.222 346.564 90.514 346.564 90.926 C 346.564 92.304 350.614 91.693 352.234 90.065 C 355.467 86.839 355.595 80.049 352.446 79.603 C 350.05 79.262 350.941 77.827 353.549 77.827 C 354.894 77.827 355.849 78.495 356.486 79.863 C 357.63 82.384 358.033 82.393 360.311 79.959 C 361.743 78.444 362.082 77.25 361.88 74.494 C 361.646 71.243 361.179 70.598 355.997 66.253 C 349.679 60.959 348.228 60.676 338.815 62.926 M 145.845 66.853 C 143.058 68.309 141.352 70.357 141.319 72.304 C 141.309 73.218 141.723 73.542 142.516 73.235 C 144.541 72.454 143.968 75.801 141.573 78.637 C 139.984 80.521 138.956 81.083 137.652 80.758 C 134.811 80.043 132.194 82.415 132.49 85.438 C 132.744 88.01 132.744 88.01 138.448 88.01 C 143.355 88.01 144.817 88.38 148.94 90.657 C 151.59 92.111 154.293 93.304 154.961 93.304 C 156.466 93.304 161.66 87.899 161.66 86.32 C 161.66 85.679 160.196 83.829 158.405 82.209 C 155.564 79.654 155.142 78.809 155.142 75.805 C 155.142 73.559 155.724 71.607 156.794 70.238 C 158.448 68.133 158.448 68.133 154.209 66.871 C 148.983 65.323 148.781 65.323 145.845 66.853 M 218.705 67.036 C 214.772 69.015 212.641 72.938 213.363 76.829 C 213.766 79.053 215.069 80.95 218.249 83.937 C 220.644 86.175 223.539 89.918 224.704 92.256 C 225.859 94.592 227.607 96.923 228.562 97.437 C 231.201 98.852 239.872 101.19 244.821 101.826 C 247.238 102.137 250.344 102.779 251.711 103.253 C 254.911 104.352 259.141 102.489 262.723 98.399 C 264.886 95.934 265.161 95.123 264.695 92.63 C 263.412 85.771 258.208 78.92 251.859 75.712 C 250.407 74.98 248.299 73.516 247.154 72.454 C 246.019 71.393 241.897 69.421 237.995 68.069 C 229.696 65.195 223.05 64.84 218.705 67.036 M 319.705 72.217 C 316.249 73.595 312.349 77.025 312.349 78.684 C 312.349 80.654 313.748 80.718 315.858 78.845 C 317.426 77.462 317.437 77.473 316.515 79.253 C 315.973 80.261 314.671 81.657 313.611 82.355 C 309.647 84.953 307.569 94.344 310.282 97.354 C 312.519 99.815 319.949 102.264 325.206 102.269 C 327.761 102.271 331.301 102.671 333.05 103.157 C 335.721 103.901 336.346 103.834 336.939 102.744 C 337.988 100.883 339.431 101.141 338.815 103.078 C 338.116 105.289 339.367 105.129 341.624 102.714 C 344.105 100.081 345.122 94.515 343.723 91.191 C 343.14 89.802 341.148 87.418 339.281 85.893 C 337.406 84.369 335.001 81.428 333.929 79.359 C 330.293 72.367 325.439 69.927 319.705 72.217 M 298.496 72.84 C 298.496 73.233 299.025 73.993 299.683 74.53 C 301.114 75.728 300.424 77.836 298.613 77.801 C 297.881 77.787 296.568 77.237 295.698 76.581 C 293.631 75.018 290.822 75.056 289.487 76.665 C 288.914 77.369 286.943 78.694 285.162 79.613 C 282.088 81.18 281.982 81.35 283.424 82.405 C 284.272 83.023 285.416 83.529 285.967 83.529 C 288.024 83.529 291.989 87.717 291.998 89.914 C 292.009 92.868 292.539 93.451 297.542 96.035 C 302.811 98.752 303.424 98.412 305.767 91.463 C 308.746 82.663 307.283 74.705 302.397 72.996 C 299.344 71.939 298.496 71.904 298.496 72.84 M 296.058 74.928 C 296.058 75.574 296.376 76.303 296.78 76.548 C 297.669 77.103 299.503 75.026 298.761 74.291 C 297.796 73.322 296.058 73.731 296.058 74.928 M 231.868 77.991 C 230.502 79.366 230.65 81.633 232.177 82.215 C 232.929 82.506 233.269 83.291 233.035 84.135 C 231.414 89.619 231.53 91.582 233.618 93.666 C 234.773 94.811 236.31 95.748 237.042 95.748 C 238.09 95.748 237.943 95.244 236.257 93.24 C 233.841 90.365 233.735 89.422 235.314 84.228 C 236.31 80.936 236.31 80.224 235.261 78.728 C 233.872 76.759 233.236 76.62 231.868 77.991 M 164.755 78.261 C 164.51 78.501 165.549 79.929 167.055 81.438 C 168.729 83.113 169.8 84.987 169.8 86.251 C 169.8 87.389 170.171 88.545 170.615 88.823 C 171.114 89.133 171.432 87.765 171.432 85.267 C 171.432 81.847 171.082 80.936 169.28 79.515 C 167.16 77.849 165.592 77.415 164.755 78.261 M 272.835 82.488 C 270.016 83.186 269.178 84.442 269.178 88.007 C 269.178 89.912 268.956 92.595 268.669 93.966 C 268.172 96.465 263.147 102.354 259.428 104.774 C 257.605 105.971 257.541 106.245 258.515 108.604 C 259.088 110.001 260.529 111.773 261.695 112.541 C 266.316 115.571 275.815 113.104 276.333 108.738 C 276.767 105.115 278.346 103.111 284.389 98.571 C 291.076 93.538 292.009 91.067 288.469 87.749 C 287.059 86.428 274.902 81.41 274.531 81.994 C 274.499 82.046 273.747 82.269 272.835 82.488 M 203.919 84.341 C 203.208 84.76 200.718 88.011 198.385 91.565 C 196.054 95.119 193.435 98.213 192.567 98.437 C 190.118 99.077 189.111 102.69 190.574 105.531 C 191.497 107.31 192.556 108.005 194.846 108.356 C 196.531 108.61 199 109.23 200.346 109.735 C 204.215 111.189 210.5 111.486 215.186 110.439 C 220.167 109.326 221.535 107.507 222.33 100.966 C 222.807 96.969 222.807 96.969 216.415 90.249 C 211.201 84.764 209.59 83.534 207.628 83.552 C 206.315 83.567 204.64 83.92 203.919 84.341 M 355.721 89.186 C 354.482 90.953 352.468 92.827 351.248 93.353 C 348.556 94.506 349.054 95.748 352.203 95.748 C 353.464 95.748 356.05 96.297 357.969 96.969 C 359.866 97.641 362.579 98.191 363.988 98.191 C 365.388 98.191 367.942 98.947 369.68 99.871 C 373.677 102.018 375.064 101.478 375.064 97.771 C 375.064 94.486 372.225 91.188 368.611 90.307 C 367.455 90.023 365.24 88.932 363.671 87.882 C 359.749 85.235 358.287 85.475 355.721 89.186 M 133.974 91.72 C 132.416 92.592 130.466 93.304 129.65 93.304 C 127.943 93.304 123.608 95.382 121.541 97.194 C 119.337 99.121 119.675 104.068 122.21 107.087 C 124.583 109.893 126.332 110.306 126.841 108.169 C 127.074 107.171 127.35 107.478 127.774 109.188 C 130.222 119.265 132.607 121.409 140.737 120.823 C 144.881 120.523 145.888 120.124 147.414 118.201 C 148.421 116.954 149.672 114.416 150.233 112.561 C 150.774 110.705 152.098 107.417 153.179 105.251 C 156.455 98.677 156.031 97.353 149.46 93.431 C 142.952 89.548 138.711 89.079 133.974 91.72 M 285.47 100.763 C 279.83 105.472 278.951 107.12 278.951 112.945 C 278.951 122.553 287.176 128.881 297.521 127.233 C 301.877 126.54 307.452 120.548 307.452 116.566 C 307.452 113.528 307.262 113.404 302.799 113.646 C 300.627 113.762 299.895 113.319 298.528 111.081 C 296.345 107.504 296.334 103.881 298.496 103.315 C 300.817 102.707 300.521 101.106 297.627 98.67 C 293.812 95.465 291.278 95.9 285.47 100.763 M 194.75 98.598 C 194.104 100.288 194.994 102.265 196.393 102.265 C 197.241 102.265 197.358 101.872 196.817 100.838 C 196.415 100.055 196.244 98.955 196.446 98.394 C 196.976 96.932 195.312 97.132 194.75 98.598 M 163.493 101.17 C 159.391 105.438 152.82 114.687 151.791 117.643 C 150.563 121.183 152.152 126.049 155.501 128.992 C 157.027 130.335 158.077 131.631 157.844 131.873 C 157.112 132.602 162.73 135.654 164.807 135.657 C 166.472 135.66 166.589 135.48 165.687 134.388 C 164.861 133.393 165.592 133.496 169.046 134.861 C 177.515 138.207 178.704 138.061 184.172 133.028 C 190.765 126.949 191.232 123.616 186.419 117.295 C 184.056 114.201 183.992 114.189 176.722 115.426 C 174.664 115.778 174.05 112.768 175.873 111.256 C 176.943 110.368 177.135 110.47 177.135 111.938 C 177.135 113.91 177.823 114.059 180.759 112.722 C 186.875 109.937 179.265 99.206 170.595 98.373 C 166.757 98.005 166.408 98.143 163.493 101.17 M 349.171 99.463 C 346.914 101.05 344.932 104.795 344.932 107.492 C 344.932 108.62 346.437 112.49 348.271 116.092 C 353.008 125.34 354.757 125.593 365.473 118.558 C 370.635 115.157 371.896 113.911 372.564 111.494 C 374.196 105.558 370.2 100.657 363.681 100.607 C 361.646 100.589 359.082 100.053 357.969 99.412 C 355.266 97.868 351.429 97.891 349.171 99.463 M 113.687 105.259 C 109.182 110.738 109.363 117.383 114.185 122.721 C 115.754 124.461 116.655 125.886 116.188 125.886 C 115.712 125.886 114.746 125.07 114.048 124.075 C 112.977 122.547 112.786 122.488 112.786 123.703 C 112.786 126.945 119.951 132.937 129.321 137.536 C 147.52 146.473 171.018 152.221 203.198 155.62 C 274.944 163.194 352.669 152.279 375.5 131.425 C 380.694 126.669 382.771 121.939 382.792 114.763 C 382.803 110.359 382.496 109.369 380.28 106.617 C 375.987 101.318 373.401 102.381 376.412 108.206 C 380.492 116.093 375.425 122.876 360.205 129.908 C 336.919 140.666 295.909 147.074 250.481 147.055 C 211.688 147.04 177.972 143.204 152.713 135.929 C 135.023 130.84 124.392 125.574 118.954 119.225 C 115.616 115.327 115.012 112.655 116.506 108.372 C 118.807 101.778 117.631 100.477 113.687 105.259 M 230.407 103.261 C 226.103 105.878 216.988 115.075 216.129 117.654 C 215.281 120.22 215.504 120.983 219.172 128.141 C 221.344 132.388 223.93 136.627 224.895 137.563 C 226.431 139.034 236.14 142.85 242.214 144.368 C 246.295 145.387 251.255 140.894 251.255 136.186 C 251.255 133.947 252.348 132.526 256.343 129.577 C 258.081 128.288 259.406 126.629 259.406 125.708 C 259.406 124.82 258.186 122.025 256.714 119.493 C 255.24 116.961 253.322 113.427 252.431 111.639 C 251.181 109.056 249.76 107.841 245.563 105.71 C 239.596 102.694 233.066 101.639 230.407 103.261 M 301.761 104.66 C 301.761 105.033 301.135 105.289 300.351 105.228 C 298.454 105.073 298.093 107.623 299.683 110.042 C 301.2 112.38 305.004 112.751 306.986 110.757 C 308.49 109.252 308.512 109.127 307.473 107.183 C 306.647 105.627 301.761 103.472 301.761 104.66 M 321.613 106.14 C 314.279 108.629 313.675 109.341 313.303 116.061 C 313.017 121.064 313.218 122.311 314.638 124.224 C 315.56 125.464 316.896 127.899 317.618 129.634 C 319.419 133.92 321.984 136.474 324.496 136.474 C 328.143 136.475 341.18 132.288 343.172 130.474 C 345.588 128.27 347.082 125.422 347.793 121.604 C 348.292 118.939 348.068 118.306 345.737 115.975 C 343.109 113.348 343.109 113.348 341.922 115.593 C 341.095 117.184 340.225 117.766 338.974 117.586 C 337.988 117.447 337.195 116.783 337.195 116.11 C 337.195 115.398 337.788 114.988 338.625 115.129 C 341.794 115.661 339.579 110.015 335.53 107.241 C 331.894 104.755 326.859 104.357 321.613 106.14 M 191.19 112.938 C 189.281 113.88 187.734 115.146 187.734 115.753 C 187.734 116.358 188.635 118.203 189.758 119.854 C 192.366 123.699 192.335 127.05 189.663 130.908 C 187.214 134.452 187.458 137.363 190.372 139.271 C 192.525 140.672 209.314 142.656 212.43 141.876 C 215.112 141.203 217.358 137.934 216.648 135.728 C 216.363 134.767 213.967 133.02 210.904 131.51 C 205.668 128.935 205.668 128.935 207.681 126.533 C 211.645 121.831 209.663 117.041 202.222 113.33 C 197.093 110.778 195.652 110.726 191.19 112.938 M 260.593 117.255 C 259.088 118.357 259.077 118.509 260.444 121.356 C 262.362 125.414 262.204 127.777 259.777 130.658 C 257.222 133.696 257.625 135.866 261.578 140.487 C 264.409 143.806 264.409 143.806 270.758 143.806 C 280.488 143.806 281.611 143.418 283.244 139.455 C 285.746 133.379 285.363 132.413 277.521 125.036 C 268.436 116.5 264.25 114.577 260.593 117.255 M 305.195 126.262 C 303.892 127.363 300.351 129.159 297.352 130.25 C 291.839 132.249 288.702 134.347 288.745 135.989 C 288.766 136.48 289.656 137.958 290.738 139.274 C 292.687 141.664 292.687 141.664 302.694 140.634 C 308.195 140.067 313.345 139.254 314.151 138.826 C 316.579 137.525 316.166 129.94 313.494 126.763 C 310.919 123.707 308.407 123.555 305.195 126.262 M 245.15 128.33 C 244.323 129.65 245.426 130.654 247.185 130.193 C 248.096 129.957 249.39 130.243 250.1 130.828 C 251.16 131.705 251.499 131.691 252.082 130.748 C 252.495 130.067 252.431 129.183 251.934 128.56 C 250.905 127.325 245.87 127.155 245.15 128.33 M 204.025 130.674 C 204.025 131.7 206.399 133.54 206.982 132.96 C 207.819 132.126 206.569 129.957 205.254 129.957 C 204.576 129.957 204.025 130.28 204.025 130.674 M 123.374 141.136 C 123.374 142.314 142.39 230.241 149.396 261.507 C 150.7 267.331 154.187 283.276 157.155 296.939 C 167.288 343.773 169.588 353.473 169.747 349.957 C 169.8 348.777 168.887 344.449 155.617 282.684 C 125.05 140.525 125.05 140.548 124.085 140.548 C 123.693 140.548 123.374 140.812 123.374 141.136 M 367.995 141.186 C 366.437 142.169 365.579 145.196 361.997 161.888 C 346.808 232.893 345.599 238.537 343.712 246.846 C 342.356 252.881 338.932 268.851 326.52 327.023 C 321.211 351.92 320.437 357.654 323.076 352.734 C 324.284 350.45 328.513 333.346 331.503 318.525 C 332.245 314.941 336.992 293.132 342.09 270.06 C 347.179 246.987 352.679 221.879 354.323 214.263 C 355.954 206.648 360.205 187.333 363.734 171.343 C 367.275 155.352 370.178 141.88 370.178 141.408 C 370.178 140.402 369.352 140.319 367.995 141.186 M 142.92 149.399 C 142.92 149.789 144.192 156.66 145.729 164.672 C 148.696 179.992 155.237 214.856 162.804 255.805 C 165.285 269.245 170.287 296.186 173.901 315.674 C 177.515 335.162 180.961 353.83 181.554 357.159 C 182.286 361.185 183.143 363.593 184.172 364.344 C 186.726 366.256 199.181 372.089 199.669 371.605 C 200.113 371.157 197.389 349.513 194.2 328.158 C 193.33 322.257 192.61 316.255 192.61 314.822 C 192.61 312.754 191.57 311.112 187.606 306.864 C 176.605 295.112 172.619 285.755 173.224 273.064 C 173.615 264.613 175.841 258.894 180.77 253.669 C 183.504 250.774 183.504 250.774 182.37 242.701 C 181.734 238.26 179.763 223.814 177.95 210.598 C 176.138 197.382 173.754 180.808 172.64 173.764 C 171.528 166.721 170.615 160.046 170.615 158.926 C 170.615 156.395 169.398 155.754 161.246 153.956 C 157.675 153.166 152.194 151.66 149.089 150.606 C 142.623 148.413 142.92 148.47 142.92 149.399 M 328.64 155.285 C 324.825 156.15 318.221 157.419 313.982 158.109 C 302.979 159.888 302.811 159.937 302.227 161.431 C 301.622 163.024 298.782 185.674 295.199 217.521 C 293.79 230.065 292.328 240.654 291.956 241.053 C 291.564 241.463 293.472 243.196 296.312 245.027 C 308.163 252.67 312.89 258.408 316.197 269.154 C 317.235 272.564 317.946 274.335 317.765 273.086 C 317.596 271.838 318.126 267.073 318.963 262.497 C 322.727 241.845 337.597 155.763 337.597 154.598 C 337.597 153.326 337.131 153.362 328.64 155.285 M 212.525 169.563 C 215.409 218.674 216.363 233.95 216.607 234.715 C 216.818 235.365 218.472 235.305 222.467 234.503 C 225.542 233.892 233.904 233.226 241.079 233.024 C 254.106 232.659 254.106 232.659 254.594 214.094 C 255.23 190.292 255.537 173.013 255.421 167.753 C 255.325 163.598 255.325 163.598 235.176 163.141 C 224.078 162.891 214.338 162.422 213.544 162.101 C 212.165 161.554 212.091 162.035 212.525 169.563 M 234.561 236.672 C 212.377 238.56 195.949 244.558 185.857 254.447 C 181.078 259.128 177.081 265.746 177.188 268.793 C 177.23 269.893 177.622 269.424 178.364 267.422 C 184.755 250.017 211.56 238.261 244.736 238.31 C 261.674 238.335 276.598 241.541 289.953 248.024 C 302.333 254.028 308.915 261.068 312.064 271.689 C 313.155 275.355 313.155 275.355 312.71 271.738 C 311.237 259.528 297.701 247.422 278.517 241.16 C 266.73 237.311 248.679 235.47 234.561 236.672 M 345.471 273.927 C 345.281 274.265 344.868 275.822 344.55 277.39 C 344.243 278.958 343.818 280.844 343.617 281.581 C 343.331 282.606 344.307 283.258 347.751 284.34 C 360.512 288.356 358.775 295.557 343.235 303.087 C 338.689 305.289 338.689 305.289 334.682 323.313 C 331.248 338.7 330.74 342.224 331.057 347.44 C 331.969 361.758 331.629 365.4 328.894 371.209 C 319.631 390.859 291.225 403.699 254.106 405.007 C 237.952 405.577 227.428 404.579 214.105 401.21 C 196.351 396.729 183.886 390.443 174.081 381.05 C 165.348 372.652 163.918 369.064 163.186 353.551 C 162.857 346.83 162.295 340.124 161.914 338.646 C 161.246 335.963 161.246 335.963 158.172 339.638 C 153.943 344.686 147.807 346.608 133.952 347.213 C 116.4 347.982 90.433 344.769 82.037 340.79 C 78.084 338.918 73.685 334.041 73.685 331.532 C 73.685 329.242 83.161 318.316 86.733 316.484 C 89.414 315.115 95.499 313.725 102.187 312.965 C 112.13 311.829 141.648 318.427 154.515 324.664 C 157.102 325.917 159.21 326.816 159.21 326.665 C 159.21 326.396 155.501 308.768 154.728 305.352 C 154.472 304.235 153.307 303.246 151.558 302.668 C 147.297 301.264 139.741 295.503 139.168 293.226 C 138.404 290.214 140.822 287.284 145.888 285.042 C 149.322 283.526 150.255 282.739 149.936 281.654 C 149.703 280.877 149.269 279.234 148.983 278 C 148.686 276.769 148.188 275.762 147.859 275.762 C 145.951 275.762 128.919 281.418 119.813 285.075 C 82.154 300.208 55.731 320.759 42.905 344.874 C 35.2 359.367 32.782 374.285 35.762 389.026 C 45.417 436.739 111.08 477.807 198.312 490.679 C 219.468 493.802 229.24 494.459 254.106 494.431 C 300.458 494.378 337.777 488.211 377.27 474.072 C 417.431 459.698 449.96 435.134 463.623 408.865 C 469.07 398.41 470.755 391.301 470.745 378.8 C 470.745 366.331 469.632 361.406 464.205 349.966 C 449.291 318.481 411.093 292.053 358.043 276.515 C 346.267 273.066 346.013 273.015 345.471 273.927 M 313.982 289.556 C 313.982 289.973 311.756 293.636 309.042 297.694 C 303.616 305.801 297.298 311.865 288.968 316.959 C 285.978 318.786 283.276 320.802 282.946 321.44 C 282.639 322.078 281.77 328.644 281.028 336.036 C 278.464 361.482 276.535 375.43 275.496 376.095 C 272.295 378.118 283.954 375.752 293.207 372.492 C 299.545 370.26 300.478 369.526 300.795 366.582 C 300.924 365.24 303.604 350.028 306.731 332.779 C 309.859 315.533 312.731 299.585 313.123 297.346 C 313.516 295.106 314.087 292.267 314.395 291.034 C 314.714 289.802 314.745 288.794 314.469 288.794 C 314.194 288.794 313.982 289.137 313.982 289.556 M 379.104 315.261 C 357.343 319.572 343.553 324.942 341.698 329.826 C 340.83 332.125 342.684 336.537 345.949 339.908 C 352.52 346.701 370.094 348.954 395.437 346.251 C 418.151 343.824 426.281 340.85 430.023 333.593 C 431.548 330.632 430.626 329.039 423.313 322.107 C 417.431 316.534 416.255 315.784 411.442 314.573 C 403.831 312.662 390.826 312.938 379.104 315.261 M 221.652 326.947 C 221.481 327.243 221.652 332.982 222.033 339.703 C 222.394 346.423 223.019 357.681 223.38 364.721 C 223.739 371.76 224.237 377.704 224.449 377.929 C 225.107 378.592 238.971 380.008 244.853 380.018 C 250.259 380.023 250.259 380.023 250.747 367.6 C 251.022 360.769 251.35 349.458 251.477 342.466 C 251.733 329.751 251.733 329.751 241.101 329.259 C 235.261 328.988 228.551 328.236 226.208 327.59 C 223.856 326.942 221.8 326.655 221.652 326.947 M 326.309 352.288 C 323.765 356.812 315.232 364.344 308.004 368.442 C 289.667 378.841 262.491 383.877 236.045 381.781 C 222.403 380.701 215.186 379.348 204.025 375.78 C 189.303 371.083 177.727 364.042 170.923 355.63 C 166.63 350.326 165.348 350.349 168.125 355.683 C 170.869 360.952 173.891 364.351 179.583 368.568 C 199.542 383.386 234.063 390.344 266.486 386.095 C 297.012 382.094 319.144 370.759 326.17 355.532 C 329.065 349.228 329.17 347.221 326.309 352.288 M 107.498 373.111 C 93.326 375.102 78.784 378.723 72.679 381.772 C 66.34 384.952 61.401 390.727 61.518 394.848 C 61.581 397.394 69.404 408.461 72.71 410.69 C 76.144 413.003 85.165 415.048 91.927 415.048 C 111.407 415.048 151.76 400.322 156.286 391.561 C 157.314 389.579 157.272 388.78 155.851 384.472 C 152.713 374.905 147.478 372.582 128.26 372.21 C 120.45 372.057 112.521 372.401 107.498 373.111 M 363.862 373.057 C 354.174 375.268 349.796 379.406 348.461 387.593 C 348.068 390.027 348.43 390.874 351.111 393.845 C 359.05 402.635 395.172 415.071 412.661 415.037 C 418.999 415.025 427.309 413.397 431.707 411.314 C 435.141 409.682 443.495 397.372 443.495 393.932 C 443.495 391.003 437.347 384.337 432.259 381.738 C 419.402 375.182 377.726 369.892 363.862 373.057 M 197.707 417.578 C 189.716 418.567 183.822 422.192 173.403 432.555 C 162.561 443.312 159.254 448.904 160.833 453.721 C 162.73 459.47 165.082 461.224 175.365 464.531 C 186.738 468.189 192.62 468.447 200.75 465.636 C 207.734 463.22 210.352 461.354 214.444 455.865 C 220.167 448.172 224.502 438.593 224.979 432.557 C 225.414 427.309 225.404 427.287 222.213 424.098 C 219.797 421.682 217.634 420.5 213.351 419.261 C 205.742 417.061 203.675 416.84 197.707 417.578 M 291.162 418.98 C 284.135 421.321 281.717 422.891 280.191 426.125 C 278.051 430.619 278.94 435.245 283.742 444.739 C 288.607 454.359 293.927 460.784 299.26 463.487 C 303.604 465.689 311.829 467.993 315.339 467.993 C 318.115 467.993 337.014 462.669 339.293 461.248 C 341.339 459.963 344.349 453.552 344.274 450.6 C 344.115 444.196 325.545 425.361 314.31 420.197 C 307.961 417.282 297.861 416.751 291.162 418.98" stroke="none" fill-rule="evenodd" style="paint-order: stroke; fill-rule: evenodd; fill-opacity: 0.7; fill: rgb(0, 0, 0);"/>
</svg>