<svg version="1.1" id="Layer_1" xmlns="http://www.w3.org/2000/svg" xmlns:xlink="http://www.w3.org/1999/xlink" x="0px" y="0px"
	 width="100%" viewBox="0 0 1024 576" enable-background="new 0 0 1024 576" xml:space="preserve">
<path fill="#FFD34D" opacity="1.000000" stroke="none" 
	d="
M365.079102,345.899841 
	C353.598969,345.886200 353.910248,345.875610 353.541840,335.036591 
	C352.658630,309.052032 353.290436,283.065247 353.051361,257.081207 
	C353.032959,255.083603 353.080383,253.083084 353.171814,251.087357 
	C353.296478,248.367599 354.441772,246.867065 357.493256,246.872208 
	C383.983734,246.916840 410.474396,246.889282 436.964874,246.830566 
	C440.211029,246.823380 441.413757,248.330078 441.313782,251.438766 
	C441.201385,254.933655 441.073395,258.454712 441.366516,261.929413 
	C441.759918,266.593018 439.764069,268.229828 435.279083,267.948700 
	C417.638245,266.843018 399.973938,267.603607 382.320404,267.447144 
	C375.147339,267.383575 375.146698,267.459167 375.158661,274.525879 
	C375.179443,286.814972 375.179413,286.827332 387.651642,286.829651 
	C403.312866,286.832550 418.975464,286.923431 434.634430,286.729828 
	C438.905426,286.677032 440.827332,287.960541 440.453430,292.425385 
	C440.204468,295.398834 440.279327,298.438690 440.584991,301.410156 
	C441.040710,305.840576 439.228363,307.168762 434.889893,307.127960 
	C417.231445,306.961823 399.570068,307.091675 381.909821,307.133301 
	C375.258545,307.148987 375.258606,307.174805 375.244751,313.779297 
	C375.219940,325.611694 375.219940,325.625671 387.111389,325.628540 
	C403.272430,325.632446 419.434906,325.729034 435.593506,325.524353 
	C439.888611,325.469940 441.412567,326.746460 441.407745,331.195312 
	C441.392334,345.408173 441.555115,345.352417 427.525513,345.427460 
	C406.871246,345.537994 386.217438,345.737762 365.079102,345.899841 
z"/>
<path fill="#FFD34D" opacity="1.000000" stroke="none" 
	d="
M716.499634,319.449280 
	C713.588928,314.095062 709.303833,312.971283 703.793823,313.106812 
	C689.296936,313.463348 689.293213,313.248291 689.290833,327.962067 
	C689.290100,332.294586 689.170654,336.630493 689.306946,340.958496 
	C689.403259,344.016174 688.549500,345.612000 685.098694,345.467224 
	C680.443054,345.271973 675.763733,345.339478 671.107666,345.565216 
	C667.899963,345.720734 667.015808,344.119232 667.013916,341.350739 
	C666.993530,311.356476 666.964355,281.362183 666.920593,251.367920 
	C666.916443,248.533981 668.134949,246.941711 671.079407,246.981155 
	C690.064392,247.235550 709.104553,245.761032 728.022583,247.549286 
	C743.861938,249.046509 754.418823,258.951874 757.419678,273.216248 
	C760.632996,288.490265 754.756836,302.041962 741.334778,310.339935 
	C740.514038,310.847351 739.741577,311.432770 738.538147,312.264069 
	C746.878967,323.085663 755.828918,333.119720 763.084290,344.145996 
	C762.072205,346.062561 760.683838,345.838959 759.364258,345.804443 
	C754.039368,345.665222 748.699341,345.218292 743.394287,345.480286 
	C739.051392,345.694794 736.284180,344.022919 733.721863,340.691254 
	C728.239502,333.562775 722.414429,326.697937 716.499634,319.449280 
M720.218140,293.725281 
	C730.305481,293.398560 735.198364,289.677795 735.742432,281.920105 
	C736.384888,272.760132 731.545715,267.838074 720.856018,267.472931 
	C711.886536,267.166565 702.897217,267.493774 693.920166,267.336548 
	C690.405518,267.275024 689.201355,268.729187 689.289124,272.090118 
	C689.432312,277.573914 689.509705,283.072968 689.256348,288.549011 
	C689.078064,292.401367 690.337646,293.902649 694.336731,293.791046 
	C702.644714,293.559174 710.963867,293.727722 720.218140,293.725281 
z"/>
<path fill="#FFD34D" opacity="1.000000" stroke="none" 
	d="
M137.745453,294.176300 
	C124.461617,275.285004 134.459045,252.193527 157.977631,246.930405 
	C177.870529,242.478638 196.984360,245.042206 215.400848,253.671478 
	C219.298141,255.497620 220.232239,257.679871 217.954468,261.452240 
	C215.806427,265.009705 213.995880,268.772400 212.071198,272.462738 
	C210.907166,274.694611 209.464844,275.100952 207.225586,273.750580 
	C194.530472,266.094849 180.666397,264.666748 166.276825,266.351105 
	C162.591568,266.782471 159.064941,267.868561 156.271439,270.460846 
	C151.556137,274.836517 152.834991,281.031128 158.988144,282.902771 
	C165.717010,284.949554 172.755081,285.195953 179.722260,285.697845 
	C187.542099,286.261139 195.270279,287.201172 202.788773,289.611450 
	C214.359360,293.320801 221.026474,301.148010 221.926651,313.201599 
	C222.767578,324.462311 218.652466,333.694244 208.945999,340.125946 
	C197.647125,347.612793 184.955490,348.654633 172.007278,348.071564 
	C159.393433,347.503540 147.329926,344.556732 136.152496,338.411163 
	C129.846252,334.943817 129.704453,334.776245 132.987686,328.640594 
	C134.637421,325.557556 136.387817,322.528534 138.059799,319.457184 
	C139.375092,317.041046 140.907410,316.776337 143.324905,318.244659 
	C156.964874,326.528931 171.756454,329.112885 187.473984,326.765839 
	C188.296097,326.643066 189.127731,326.550476 189.933014,326.353973 
	C196.721237,324.697571 199.813049,321.682922 199.745407,316.821747 
	C199.678848,312.040100 197.076767,309.767792 189.767548,308.357880 
	C178.806854,306.243591 167.531052,306.668030 156.597229,304.261841 
	C149.471527,302.693726 142.830078,300.292969 137.745453,294.176300 
z"/>
<path fill="#FFD34D" opacity="1.000000" stroke="none" 
	d="
M250.815842,345.855499 
	C242.702271,345.728394 242.700546,345.728394 242.691956,338.037109 
	C242.660522,309.900024 242.625687,281.762970 242.603165,253.625900 
	C242.597839,246.980164 242.651321,246.939133 249.264786,246.932266 
	C265.253632,246.915695 281.242767,246.838379 297.231201,246.912994 
	C314.053894,246.991501 327.597870,256.827332 331.433350,271.568298 
	C337.044006,293.131805 321.707794,313.186432 299.453918,313.342529 
	C291.459900,313.398621 283.464020,313.276215 275.471222,313.390656 
	C272.150208,313.438202 270.433380,312.287750 270.671265,308.766998 
	C270.794464,306.943665 270.650940,305.103882 270.685089,303.272614 
	C270.823547,295.842529 272.829559,293.842194 280.259735,293.762146 
	C285.755402,293.702942 291.260010,293.872345 296.745483,293.615631 
	C304.088287,293.272003 308.787598,289.760651 310.324005,283.917206 
	C312.254730,276.573944 308.289368,269.686310 300.860931,268.471558 
	C289.785797,266.660461 278.606812,267.413544 267.467560,268.044861 
	C263.621674,268.262817 264.407715,271.359070 264.401245,273.715118 
	C264.346771,293.534393 264.450500,313.354797 264.262146,333.172516 
	C264.223907,337.193176 266.405487,342.546692 262.911469,344.930725 
	C260.119904,346.835510 255.220551,345.651093 250.815842,345.855499 
z"/>
<path fill="#FFD34D" opacity="1.000000" stroke="none" 
	d="
M465.754761,325.142639 
	C453.827911,305.546600 454.411041,283.488495 467.095306,266.182922 
	C479.638763,249.069489 502.728821,240.947067 524.104126,245.979126 
	C534.595215,248.448883 543.587585,253.468903 551.443787,260.801422 
	C554.547607,263.698273 554.960876,266.111298 551.667969,269.054535 
	C548.813293,271.606110 546.062256,274.291779 543.446533,277.087585 
	C540.759155,279.959900 538.839600,279.650940 536.142517,276.752258 
	C525.355957,265.159607 509.288971,262.407349 495.517609,269.442352 
	C483.524872,275.568756 477.080292,288.858063 479.430634,302.615265 
	C481.412628,314.216461 492.475525,324.720001 504.559937,326.881805 
	C517.756531,329.242615 528.564514,325.293884 537.047791,315.060150 
	C539.030579,312.668152 540.681274,312.570099 542.840698,314.506653 
	C546.064331,317.397614 549.269470,320.312622 552.576904,323.105530 
	C555.320801,325.422638 555.401672,327.337067 552.810669,330.090210 
	C528.164124,356.278778 487.548950,354.154877 465.754761,325.142639 
z"/>
<path fill="#FFD34D" opacity="1.000000" stroke="none" 
	d="
M814.067139,311.014648 
	C808.966614,321.544739 803.962524,331.706635 799.153687,341.960083 
	C797.906799,344.618774 796.242493,345.581329 793.346497,345.509735 
	C788.861206,345.398865 784.365723,345.738892 779.873535,345.848450 
	C777.889771,345.896851 775.862549,346.009125 774.286804,344.497620 
	C773.902161,342.624725 774.910583,341.199066 775.626343,339.731018 
	C789.934021,310.384644 804.316895,281.074677 818.521667,251.678680 
	C820.221008,248.162003 822.398010,246.895401 826.235107,246.862411 
	C844.039062,246.709335 844.082825,246.593506 851.784546,262.464081 
	C864.218506,288.086182 876.592163,313.737610 888.971985,339.386017 
	C889.749451,340.996796 890.939148,342.535950 890.156677,345.249023 
	C883.274536,345.249023 876.186951,345.363983 869.106934,345.184509 
	C866.739868,345.124481 866.178955,342.703339 865.331848,340.944763 
	C854.923523,319.337036 844.544739,297.715057 834.143982,276.103668 
	C833.799683,275.388184 833.634399,274.464355 831.978821,274.179840 
	C826.118896,286.235168 820.177551,298.457886 814.067139,311.014648 
z"/>
<path fill="#FFD34D" opacity="1.000000" stroke="none" 
	d="
M587.999878,267.376770 
	C580.838745,267.376343 574.175232,267.270538 567.517395,267.418854 
	C564.077942,267.495453 562.665222,266.116730 562.799683,262.707153 
	C562.943848,259.048981 562.902527,255.380219 562.836304,251.717987 
	C562.776184,248.396545 564.220642,246.877808 567.625244,246.882660 
	C594.103088,246.920334 620.580933,246.902481 647.058777,246.859329 
	C649.845032,246.854782 651.438965,247.697220 651.434265,250.833908 
	C651.428101,254.989822 651.712952,259.146362 651.881104,263.302277 
	C652.006348,266.400391 650.839478,267.623199 647.447815,267.587006 
	C627.799988,267.377502 608.149536,267.419647 587.999878,267.376770 
z"/>
<path fill="#FFD34D" opacity="1.000000" stroke="none" 
	d="
M617.343384,332.984863 
	C617.360657,345.424622 617.360535,345.445251 605.407043,345.387604 
	C594.417542,345.334625 595.714233,346.258148 595.613098,335.849121 
	C595.433533,317.357697 595.236389,298.866302 595.131714,280.374420 
	C595.094666,273.825775 595.323303,273.711212 601.884521,273.677277 
	C617.333740,273.597412 617.336792,273.597412 617.342529,288.992432 
	C617.347961,303.490906 617.346130,317.989349 617.343384,332.984863 
z"/>
<path fill="#FFD34D" opacity="1.000000" stroke="none" 
	d="
M833.999634,332.212585 
	C825.946167,331.910797 818.327209,332.816437 809.667053,331.392303 
	C812.210815,326.428955 814.272949,322.185791 816.552612,318.062866 
	C817.495422,316.357819 819.458557,316.689453 821.094482,316.683624 
	C828.420532,316.657501 835.751526,316.838379 843.070862,316.616241 
	C846.744385,316.504761 849.035645,317.667908 850.291077,321.205566 
	C851.434143,324.426331 852.934509,327.520325 854.934753,332.212250 
	C847.269836,332.212250 840.884705,332.212250 833.999634,332.212585 
z"/>
</svg>